<?xml version="1.0" encoding="UTF-8" standalone="no"?>
<!DOCTYPE svg PUBLIC "-//W3C//DTD SVG 1.1//EN" "http://www.w3.org/Graphics/SVG/1.1/DTD/svg11.dtd">
<svg width="100%" height="100%" viewBox="0 0 32 32" version="1.1" xmlns="http://www.w3.org/2000/svg" xmlns:xlink="http://www.w3.org/1999/xlink" xml:space="preserve" style="fill-rule:evenodd;clip-rule:evenodd;stroke-linejoin:round;stroke-miterlimit:1.41421;">
    <g transform="matrix(0.966441,0,0,0.966441,0.536937,0.536937)">
        <g>
            <g>
                <path d="M30,32L2,32C0.896,32 0,31.104 0,30L0,2C0,0.896 0.896,0 2,0L30,0C31.104,0 32,0.896 32,2L32,30C32,31.104 31.104,32 30,32ZM11,11L7,11L7,25L11,25L11,11ZM20.499,11C17.708,11 17.228,12.018 17,13L17,11L13,11L13,25L17,25L17,17C17,15.703 17.703,15 19,15C20.266,15 21,15.688 21,17L21,25L25,25L25,18C25,14 24.479,11 20.499,11ZM9,6C10.104,6 11,6.896 11,8C11,9.104 10.104,10 9,10C7.896,10 7,9.104 7,8C7,6.896 7.896,6 9,6Z" style="fill:rgb(242,242,242);"/>
            </g>
        </g>
    </g>
</svg>
