<?xml version="1.0" encoding="UTF-8" standalone="no"?>
<!DOCTYPE svg PUBLIC "-//W3C//DTD SVG 1.1//EN" "http://www.w3.org/Graphics/SVG/1.1/DTD/svg11.dtd">
<svg width="100%" height="100%" viewBox="0 0 24 24" version="1.1" xmlns="http://www.w3.org/2000/svg" xmlns:xlink="http://www.w3.org/1999/xlink" xml:space="preserve" style="fill-rule:evenodd;clip-rule:evenodd;stroke-linejoin:round;stroke-miterlimit:1.41421;">
    <g transform="matrix(1,0,0,1.13789,0,-1.65472)">
        <path d="M11.984,13C10.031,13 -0.031,4.891 -0.031,4.891L-0.031,4C-0.031,2.896 0.865,2 1.971,2L21.997,2C23.104,2 24,2.896 24,4L23.984,5C23.984,5 14.031,13 11.984,13ZM11.984,15.75C14.125,15.75 23.984,8 23.984,8L24,20C24,21.104 23.104,22 21.997,22L1.971,22C0.866,22 -0.031,21.104 -0.031,20L-0.015,8C-0.016,8 10.031,15.75 11.984,15.75Z" style="fill:rgb(242,242,242);"/>
    </g>
</svg>
