<?xml version="1.0" encoding="UTF-8" standalone="no"?>
<!DOCTYPE svg PUBLIC "-//W3C//DTD SVG 1.1//EN" "http://www.w3.org/Graphics/SVG/1.1/DTD/svg11.dtd">
<svg width="100%" height="100%" viewBox="0 0 64 64" version="1.1" xmlns="http://www.w3.org/2000/svg" xmlns:xlink="http://www.w3.org/1999/xlink" xml:space="preserve" style="fill-rule:evenodd;clip-rule:evenodd;stroke-linejoin:round;stroke-miterlimit:1.41421;">
    <rect id="canvas_background" x="-1" y="-1" width="582" height="402" style="fill:none;"/>
    <g>
        <path id="svg_2" d="M11.028,45.416L52.971,45.416C54.629,45.416 55.967,44.074 55.967,42.42L55.967,12.46C55.967,10.254 54.18,8.466 51.975,8.466L12.026,8.466C9.82,8.466 8.033,10.254 8.033,12.46L8.033,42.42C8.033,44.074 9.375,45.416 11.028,45.416L11.028,45.416ZM13.033,13.466L50.967,13.466L50.967,40.416L13.033,40.416L13.033,13.466Z" style="fill:rgb(50,97,130);fill-rule:nonzero;"/>
        <path id="svg_3" d="M57.854,47.252L6.147,47.252C5.594,47.252 5.147,47.699 5.147,48.252C5.147,49.225 5.147,50.732 5.147,51.953C5.147,53.932 7.156,55.533 9.633,55.533L54.367,55.533C56.844,55.533 58.853,53.931 58.853,51.953L58.853,48.252C58.854,47.699 58.406,47.252 57.854,47.252ZM38.238,52.393L25.761,52.393C25.209,52.393 24.761,51.946 24.761,51.393C24.761,50.84 25.209,50.393 25.761,50.393L38.238,50.393C38.791,50.393 39.238,50.84 39.238,51.393C39.238,51.946 38.791,52.393 38.238,52.393Z" style="fill:rgb(50,97,130);fill-rule:nonzero;"/>
    </g>
</svg>
