<svg width="64" height="64" xmlns="http://www.w3.org/2000/svg">

 <g>
  <title>background</title>
  <rect fill="none" id="canvas_background" height="402" width="582" y="-1" x="-1"/>
 </g>
 <g>
  <title>Layer 1</title>
  <path fill="#326182" id="svg_2" d="m34.464,36.664l0,-1.116c0,-1.361 -1.103,-2.464 -2.463,-2.464c-1.361,0 -2.464,1.103 -2.464,2.464l0,1.116c0,1.361 1.103,2.464 2.464,2.464c1.359,0 2.463,-1.103 2.463,-2.464z"/>
  <path fill="#326182" id="svg_3" d="m36.154,38.027c-0.546,1.787 -2.191,3.099 -4.153,3.099c-1.963,0 -3.608,-1.312 -4.154,-3.099l-16.969,0c-1.071,0 -2.083,-0.249 -2.991,-0.681l0,11.267c0,2.2 1.8,4 4,4l40.226,0c2.2,0 4,-1.8 4,-4l0,-11.266c-0.909,0.432 -1.92,0.681 -2.991,0.681l-16.968,0l0,-0.001z"/>
  <path fill="#326182" id="svg_4" d="m52.955,17.795l-9.601,0c-0.58,-3.626 -3.721,-6.408 -7.508,-6.408l-7.693,0c-3.787,0 -6.927,2.782 -7.508,6.408l-9.6,0c-2.292,0 -4.167,1.8 -4.167,4l0,9.233c0,2.209 1.791,4 4,4l16.78,0c0.057,-1.151 0.551,-2.185 1.332,-2.933c0.024,-0.023 0.052,-0.041 0.077,-0.063c0.173,-0.159 0.353,-0.309 0.55,-0.439c0.07,-0.047 0.15,-0.079 0.223,-0.121c0.162,-0.093 0.322,-0.19 0.497,-0.262c0.137,-0.057 0.285,-0.09 0.429,-0.133c0.124,-0.037 0.242,-0.086 0.371,-0.112c0.279,-0.057 0.568,-0.087 0.863,-0.087c0.296,0 0.584,0.031 0.863,0.087c0.128,0.026 0.246,0.075 0.37,0.112c0.144,0.043 0.292,0.076 0.429,0.134c0.174,0.072 0.333,0.168 0.495,0.261c0.074,0.043 0.154,0.075 0.225,0.122c0.197,0.129 0.376,0.279 0.549,0.438c0.025,0.023 0.054,0.041 0.078,0.065c0.782,0.748 1.275,1.782 1.332,2.933l16.78,0c2.209,0 4,-1.791 4,-4l0,-9.233c0.001,-2.202 -1.874,-4.002 -4.166,-4.002zm-28.459,0c0.51,-1.541 1.947,-2.664 3.657,-2.664l7.693,0c1.71,0 3.147,1.123 3.657,2.664l-15.007,0z"/>
 </g>
</svg>