<?xml version="1.0" encoding="UTF-8" standalone="no"?>
<!DOCTYPE svg PUBLIC "-//W3C//DTD SVG 1.1//EN" "http://www.w3.org/Graphics/SVG/1.1/DTD/svg11.dtd">
<svg width="100%" height="100%" viewBox="0 0 64 64" version="1.1" xmlns="http://www.w3.org/2000/svg" xmlns:xlink="http://www.w3.org/1999/xlink" xml:space="preserve" style="fill-rule:evenodd;clip-rule:evenodd;stroke-linejoin:round;stroke-miterlimit:1.41421;">
    <rect id="canvas_background" x="-1" y="-1" width="582" height="402" style="fill:none;"/>
    <g>
        <path id="svg_2" d="M13.068,36.785L13.068,56.021C13.068,56.504 13.46,56.897 13.944,56.897L34.589,56.897L34.589,39.479L44.287,39.479L44.287,56.897L50.056,56.897C50.541,56.897 50.932,56.504 50.932,56.021L50.932,36.785L32.011,17.945L13.068,36.785L13.068,36.785ZM28.464,47.594L19.713,47.594L19.713,39.48L28.464,39.48L28.464,47.594Z" style="fill:rgb(50,97,130);fill-rule:nonzero;"/>
        <path id="svg_3" d="M54.767,29.868L32.001,7.103L21.261,17.842L21.261,13.116C21.261,12.012 20.365,11.116 19.261,11.116C18.157,11.116 17.261,12.012 17.261,13.116L17.261,21.842L9.234,29.868C8.257,30.845 8.257,32.428 9.234,33.404C9.722,33.892 10.362,34.136 11.002,34.136C11.642,34.136 12.281,33.892 12.77,33.405L32.002,14.175L51.232,33.404C52.209,34.381 53.791,34.381 54.767,33.404C55.743,32.427 55.743,30.844 54.767,29.868L54.767,29.868Z" style="fill:rgb(50,97,130);fill-rule:nonzero;"/>
    </g>
</svg>
