<svg width="64" height="64" xmlns="http://www.w3.org/2000/svg">

 <g>
  <title>background</title>
  <rect fill="none" id="canvas_background" height="402" width="582" y="-1" x="-1"/>
 </g>
 <g>
  <title>Layer 1</title>
  <path fill="#326182" id="svg_2" d="m13.068,36.785l0,19.236c0,0.483 0.392,0.876 0.876,0.876l20.645,0l0,-17.418l9.698,0l0,17.418l5.769,0c0.485,0 0.876,-0.393 0.876,-0.876l0,-19.236l-18.921,-18.84l-18.943,18.84zm15.396,10.809l-8.751,0l0,-8.114l8.751,0l0,8.114z"/>
  <path fill="#326182" id="svg_3" d="m54.767,29.868l-22.766,-22.765l-10.74,10.739l0,-4.726c0,-1.104 -0.896,-2 -2,-2s-2,0.896 -2,2l0,8.726l-8.027,8.026c-0.977,0.977 -0.977,2.56 0,3.536c0.488,0.488 1.128,0.732 1.768,0.732s1.279,-0.244 1.768,-0.731l19.232,-19.23l19.23,19.229c0.977,0.977 2.559,0.977 3.535,0c0.976,-0.977 0.976,-2.56 0,-3.536z"/>
 </g>
</svg>