<svg width="64" height="64" xmlns="http://www.w3.org/2000/svg">

 <g>
  <title>background</title>
  <rect fill="none" id="canvas_background" height="402" width="582" y="-1" x="-1"/>
 </g>
 <g>
  <title>Layer 1</title>
  <path fill="#326182" id="svg_2" d="m11.028,45.416l41.943,0c1.658,0 2.996,-1.342 2.996,-2.996l0,-29.96c0,-2.206 -1.787,-3.994 -3.992,-3.994l-39.949,0c-2.206,0 -3.993,1.788 -3.993,3.994l0,29.96c0,1.654 1.342,2.996 2.995,2.996zm2.005,-31.95l37.934,0l0,26.95l-37.934,0l0,-26.95z"/>
  <path fill="#326182" id="svg_3" d="m57.854,47.252l-51.707,0c-0.553,0 -1,0.447 -1,1c0,0.973 0,2.48 0,3.701c0,1.979 2.009,3.58 4.486,3.58l44.734,0c2.477,0 4.486,-1.602 4.486,-3.58l0,-3.701c0.001,-0.553 -0.447,-1 -0.999,-1zm-19.616,5.141l-12.477,0c-0.552,0 -1,-0.447 -1,-1s0.448,-1 1,-1l12.477,0c0.553,0 1,0.447 1,1s-0.447,1 -1,1z"/>
 </g>
</svg>