<svg width="64" height="64" xmlns="http://www.w3.org/2000/svg">

 <g>
  <title>background</title>
  <rect fill="none" id="canvas_background" height="402" width="582" y="-1" x="-1"/>
 </g>
 <g>
  <title>Layer 1</title>
  <rect fill="#326182" id="svg_2" y="19.967747" x="21.685" width="20.621" height="3"/>
  <rect fill="#326182" id="svg_3" y="27.223" x="21.685" width="20.621" height="3"/>
  <path fill="#326182" id="svg_4" d="m51.015,7.999l-38,0c-0.553,0 -1,0.447 -1,1l0,33.323c-0.011,0.096 -0.029,0.191 -0.029,0.29c0,4.912 3.681,8.972 8.428,9.589l-0.029,0.022l29.631,3.778c1.104,0 2,-0.895 2,-2l0,-45.002c-0.001,-0.553 -0.449,-1 -1.001,-1zm-4,42.207l-19.84,-11.635c-0.466,-0.296 -0.844,-0.089 -0.844,0.464l0,3.422l0,-0.014c-0.004,0.057 0,0.111 0,0.169c0,2.58 -2.087,4.679 -4.667,4.679s-4.649,-1.928 -4.649,-4.508c0,-0.091 0.009,-0.22 0,-0.308l0,-0.128l0,-29.348l30,0l0,37.207z"/>
 </g>
</svg>